<svg xmlns="http://www.w3.org/2000/svg" xmlns:xlink="http://www.w3.org/1999/xlink" width="auto" height="auto" viewBox="0 0 256.13 253.37"><defs><style>.cls-1{isolation:isolate;}.cls-2{fill:#7a67f8;}.cls-3{fill:#f85977;}.cls-4{fill:#159bff;}.cls-5{fill:#67e5ad;}.cls-6,.cls-7,.cls-8,.cls-9{fill-opacity:0.4;mix-blend-mode:multiply;}.cls-6{fill:url(#linear-gradient);}.cls-7{fill:url(#linear-gradient-2);}.cls-8{fill:url(#linear-gradient-3);}.cls-9{fill:url(#linear-gradient-4);}</style><linearGradient id="linear-gradient" x1="13675.26" y1="2213.45" x2="13685.71" y2="2202.43" gradientTransform="translate(13797.32 2313.94) rotate(180)" gradientUnits="userSpaceOnUse"><stop offset="0" stop-opacity="0.9"/><stop offset="0.79" stop-opacity="0"/></linearGradient><linearGradient id="linear-gradient-2" x1="9447.82" y1="-10522.37" x2="9458.27" y2="-10533.38" gradientTransform="translate(10676.08 9568.82) rotate(-90)" xlink:href="#linear-gradient"/><linearGradient id="linear-gradient-3" x1="951.09" y1="6394.38" x2="961.54" y2="6383.37" gradientTransform="translate(6497.36 -820.37) rotate(90)" xlink:href="#linear-gradient"/><linearGradient id="linear-gradient-4" x1="-3247.23" y1="-6353.95" x2="-3236.78" y2="-6364.96" gradientTransform="translate(3381.84 6505.21)" xlink:href="#linear-gradient"/></defs><g class="cls-1"><g id="Layer_2" data-name="Layer 2"><g id="Layer_1-2" data-name="Layer 1"><path class="cls-2" d="M176.74,197.63h-.06c-14.51,0-27.48-10.09-43.7-26.31L97.74,136.37l11-11.12,35.27,35c15.64,15.64,24.8,21.72,32.68,21.74h0c8,0,17.63-6.42,33.34-22.13l18-18.24c9.07-9.08,13.07-17,12.25-24.22-.67-5.88-4.55-12.19-12.21-19.85l-.17-.17c-8.28-8.81-18.4-18.63-29-24.07-2-10.05-8.4-18-9.31-19.41,19.34,2.84,36.6,18.83,49.62,32.66,14.17,14.21,29.51,36.49-.09,66.09l-18,18.24C204.66,187.4,191.48,197.63,176.74,197.63Z"/><path class="cls-3" d="M129.15,145.47l33-33.37c15.65-15.64,21.74-24.8,21.75-32.68s-6.4-17.64-22.13-33.37L143.54,28C125,9.5,113.75,13.73,99.47,28l-.17.17c-7.83,7.36-16.46,16.18-22.1,25.48-5.24.37-12,2.15-20.32,7.71,4.6-17.27,19-32.65,31.6-44.52,14.21-14.18,36.5-29.51,66.09.09l18.25,18c16.55,16.55,26.78,29.75,26.75,44.51,0,14.51-10.09,27.48-26.3,43.7l-33,33.35Z"/><path class="cls-4" d="M63.67,196.82c-18.21-3.87-34.45-19-46.85-32.16C10.35,158.17,1.63,148.13.21,135.58c-1.39-12.28,4.07-24.38,16.7-37l18-18.24C51.44,63.8,64.63,53.57,79.37,53.57h0c14.52,0,27.49,10.09,43.7,26.31L159,115.35l-11,11.13L112.08,91C96.44,75.34,87.28,69.25,79.4,69.23h0c-8,0-17.63,6.42-33.35,22.13L28,109.61c-9.07,9.07-13.07,17-12.25,24.21C16.44,139.7,20.32,146,28,153.67l.17.18c7.88,8.38,17.44,17.68,27.47,23.25C56.47,185.94,61.72,193.86,63.67,196.82Z"/><path class="cls-5" d="M133.84,253.37c-9.79,0-20.92-4.51-33.35-16.93l-18.24-18c-35.64-35.63-35.72-52.94-.45-88.21l34.59-34.94,11.14,11-34.63,35C77.26,156.91,71.17,166.07,71.15,174s6.4,17.64,22.13,33.38l18.25,18c18.54,18.54,29.79,14.32,44.07,0l.17-.17c8.41-7.91,17.79-17.59,23.35-27.64,8.45-.72,14.75-4.28,19.5-7.32-4.06,18-19,34-32,46.29C158.34,244.75,147.37,253.37,133.84,253.37Z"/><polygon class="cls-6" points="108.08 103.67 116.41 95.26 127.53 106.28 119.5 114.39 108.08 103.67"/><polygon class="cls-7" points="150.54 107.03 158.95 115.35 147.94 126.49 139.82 118.44 150.54 107.03"/><polygon class="cls-8" points="106.15 144.7 97.74 136.37 108.76 125.25 116.88 133.28 106.15 144.7"/><polygon class="cls-9" points="148.59 148.09 140.27 156.5 129.14 145.48 137.18 137.36 148.59 148.09"/></g></g></g></svg>
